<?xml version="1.0" standalone="no"?>
<!DOCTYPE svg PUBLIC "-//W3C//DTD SVG 20010904//EN"
 "http://www.w3.org/TR/2001/REC-SVG-20010904/DTD/svg10.dtd">
<svg version="1.0" xmlns="http://www.w3.org/2000/svg"
 width="114.000000pt" height="109.000000pt" viewBox="0 0 114.000000 109.000000"
 preserveAspectRatio="xMidYMid meet">

<g transform="translate(0.000000,109.000000) scale(0.100000,-0.100000)"
fill="#000000" stroke="none">
<path d="M262 689 l3 -221 152 -88 153 -89 155 91 155 91 0 219 0 218 -310 0
-310 0 2 -221z m586 -1 l2 -187 -136 -80 c-75 -45 -141 -81 -148 -80 -18 1
-270 153 -268 162 1 4 2 90 2 192 l0 185 273 -2 272 -3 3 -187z"/>
<path d="M545 807 c-3 -7 -4 -56 -3 -108 3 -93 3 -94 28 -94 l25 0 0 105 c0
101 -1 105 -23 108 -12 2 -24 -3 -27 -11z"/>
<path d="M432 573 c2 -21 17 -37 58 -65 30 -21 66 -38 78 -38 13 0 48 15 78
32 48 29 54 36 54 65 l0 33 -55 -35 c-30 -19 -62 -35 -72 -35 -10 0 -44 16
-76 35 -32 19 -60 35 -63 35 -3 0 -4 -12 -2 -27z"/>
<path d="M630 590 c0 -5 5 -10 10 -10 6 0 10 5 10 10 0 6 -4 10 -10 10 -5 0
-10 -4 -10 -10z"/>
<path d="M600 570 c0 -5 5 -10 10 -10 6 0 10 5 10 10 0 6 -4 10 -10 10 -5 0
-10 -4 -10 -10z"/>
<path d="M570 560 c0 -5 5 -10 10 -10 6 0 10 5 10 10 0 6 -4 10 -10 10 -5 0
-10 -4 -10 -10z"/>
</g>
</svg>
