<?xml version="1.0" standalone="no"?>
<!DOCTYPE svg PUBLIC "-//W3C//DTD SVG 20010904//EN"
 "http://www.w3.org/TR/2001/REC-SVG-20010904/DTD/svg10.dtd">
<svg version="1.0" xmlns="http://www.w3.org/2000/svg"
 width="66.000000pt" height="77.000000pt" viewBox="0 0 66.000000 77.000000"
 preserveAspectRatio="xMidYMid meet">

<g transform="translate(0.000000,77.000000) scale(0.100000,-0.100000)"
fill="#000000" stroke="none">
<path d="M22 524 l3 -216 151 -88 151 -87 149 87 149 88 3 216 2 216 -305 0
-305 0 2 -216z m570 -9 l0 -180 -128 -77 c-71 -43 -133 -78 -139 -78 -5 1 -66
34 -135 74 l-125 74 -3 186 -2 186 265 -2 266 -3 1 -180z"/>
<path d="M317 633 c-4 -3 -7 -17 -7 -30 0 -16 -9 -27 -33 -37 -34 -14 -67 -54
-67 -81 0 -11 -10 -15 -36 -15 -45 0 -42 -24 4 -28 21 -2 32 -9 32 -19 0 -20
63 -83 83 -83 10 0 17 -11 19 -32 4 -42 28 -50 28 -10 0 25 7 34 38 49 22 11
45 33 57 55 16 30 26 38 48 38 17 0 27 5 27 15 0 10 -10 15 -29 15 -22 0 -31
6 -36 23 -10 31 -41 63 -76 77 -23 10 -29 19 -29 41 0 28 -9 37 -23 22z m-7
-93 c0 -11 7 -20 15 -20 8 0 15 9 15 20 0 24 3 24 39 6 15 -8 32 -26 39 -41
16 -34 15 -35 -8 -35 -11 0 -20 -7 -20 -15 0 -8 9 -15 20 -15 27 0 25 -12 -6
-49 -27 -33 -64 -42 -64 -16 0 8 -7 15 -16 15 -10 0 -14 -6 -11 -14 16 -42
-55 -11 -78 34 -15 29 -15 30 5 30 11 0 20 7 20 15 0 8 -7 15 -15 15 -26 0
-17 37 16 64 37 31 49 33 49 6z"/>
</g>
</svg>
