<?xml version="1.0" standalone="no"?>
<!DOCTYPE svg PUBLIC "-//W3C//DTD SVG 20010904//EN"
 "http://www.w3.org/TR/2001/REC-SVG-20010904/DTD/svg10.dtd">
<svg version="1.0" xmlns="http://www.w3.org/2000/svg"
 width="68.000000pt" height="77.000000pt" viewBox="0 0 68.000000 77.000000"
 preserveAspectRatio="xMidYMid meet">

<g transform="translate(0.000000,77.000000) scale(0.100000,-0.100000)"
fill="#000000" stroke="none">
<path d="M32 528 l3 -222 152 -88 153 -89 155 92 155 91 0 219 0 219 -310 0
-310 0 2 -222z m578 -7 l0 -189 -130 -76 c-71 -42 -135 -76 -142 -76 -7 1 -69
34 -138 74 l-125 73 -3 192 -2 191 270 0 270 0 0 -189z"/>
<path d="M364 636 c-10 -27 1 -51 26 -54 31 -5 53 23 39 49 -12 22 -57 25 -65
5z"/>
<path d="M231 574 c-16 -21 -19 -30 -10 -41 10 -11 14 -10 26 7 8 11 23 20 34
20 24 0 24 -2 -1 -50 -11 -22 -20 -53 -20 -70 0 -28 -3 -30 -35 -30 -28 0 -35
-4 -35 -20 0 -18 7 -20 55 -20 l55 0 0 38 0 37 20 -25 c13 -17 20 -41 20 -72
0 -41 3 -48 20 -48 17 0 20 7 20 50 0 35 -6 59 -20 78 -20 27 -19 62 1 62 4 0
6 -7 3 -15 -10 -25 82 -21 98 4 9 15 19 18 43 14 23 -4 34 -1 38 10 5 12 -5
16 -50 19 -64 4 -89 -6 -53 -21 24 -9 24 -10 -7 -10 -30 -1 -33 2 -33 29 0 23
-8 35 -37 55 -51 34 -104 34 -132 -1z"/>
</g>
</svg>
