<?xml version="1.0" standalone="no"?>
<!DOCTYPE svg PUBLIC "-//W3C//DTD SVG 20010904//EN"
 "http://www.w3.org/TR/2001/REC-SVG-20010904/DTD/svg10.dtd">
<svg version="1.0" xmlns="http://www.w3.org/2000/svg"
 width="71.000000pt" height="85.000000pt" viewBox="0 0 71.000000 85.000000"
 preserveAspectRatio="xMidYMid meet">

<g transform="translate(0.000000,85.000000) scale(0.100000,-0.100000)"
fill="#000000" stroke="none">
<path d="M50 568 l0 -213 107 -60 c59 -33 126 -71 149 -84 l43 -24 150 89 151
88 0 208 0 208 -300 0 -300 0 0 -212z m560 -2 l0 -184 -131 -76 -132 -77 -133
77 -134 76 0 178 c0 97 3 180 7 183 3 4 123 7 265 7 l258 0 0 -184z"/>
<path d="M230 607 c-35 -9 -46 -17 -48 -36 -3 -21 -1 -23 20 -17 44 13 213 18
258 8 42 -10 59 -5 60 19 1 29 -210 48 -290 26z"/>
<path d="M152 560 c0 -14 2 -19 5 -12 2 6 2 18 0 25 -3 6 -5 1 -5 -13z"/>
<path d="M530 561 c0 -12 5 -21 10 -21 6 0 10 6 10 14 0 8 -4 18 -10 21 -5 3
-10 -3 -10 -14z"/>
<path d="M245 545 c-5 -2 -22 -6 -37 -9 -32 -7 -28 -36 10 -66 28 -23 107 -28
115 -7 3 10 9 10 26 0 37 -22 99 -16 127 12 32 32 28 58 -11 66 -31 7 -212 10
-230 4z"/>
<path d="M155 510 c3 -5 8 -10 11 -10 2 0 4 5 4 10 0 6 -5 10 -11 10 -5 0 -7
-4 -4 -10z"/>
</g>
</svg>
